<svg width="96" height="96" xmlns="http://www.w3.org/2000/svg" xmlns:xlink="http://www.w3.org/1999/xlink" xml:space="preserve" overflow="hidden"><g transform="translate(-1048 -148)"><path d="M1077 174C1078.7 174 1080 172.7 1080 171L1080 165C1080 163.3 1078.7 162 1077 162 1075.3 162 1074 163.3 1074 165L1074 171C1074 172.7 1075.3 174 1077 174Z" fill="#FFFFFF"/><path d="M1068 216 1084 216 1084 224 1068 224 1068 216ZM1068 204 1084 204 1084 212 1068 212 1068 204ZM1068 192 1084 192 1084 200 1068 200 1068 192ZM1104 192 1104 200 1088 200 1088 192 1104 192ZM1124 192 1124 200 1108 200 1108 192 1124 192ZM1124 212 1108 212 1108 204 1124 204 1124 212ZM1124 224 1108 224 1108 216 1124 216 1124 224ZM1088 212 1088 204 1104 204 1104 212 1088 212ZM1088 224 1088 216 1104 216 1104 224 1088 224ZM1062 230 1130 230 1130 186 1062 186 1062 230Z" fill="#FFFFFF"/><path d="M1115 174C1116.7 174 1118 172.7 1118 171L1118 165C1118 163.3 1116.7 162 1115 162 1113.3 162 1112 163.3 1112 165L1112 171C1112 172.7 1113.3 174 1115 174Z" fill="#FFFFFF"/><path d="M1122 168 1122 171C1122 174.9 1118.9 178 1115 178 1111.1 178 1108 174.9 1108 171L1108 168 1084 168 1084 171C1084 174.9 1080.9 178 1077 178 1073.1 178 1070 174.9 1070 171L1070 168 1062 168 1062 182 1130 182 1130 168 1122 168Z" fill="#FFFFFF"/></g></svg>