<svg width="96" height="96" xmlns="http://www.w3.org/2000/svg" xmlns:xlink="http://www.w3.org/1999/xlink" xml:space="preserve" overflow="hidden"><g transform="translate(-1048 -264)"><path d="M1071 346 1071 278 1096 278 1096 299 1121 299 1121 346 1071 346ZM1102 280.5 1114.5 293 1102 293 1102 280.5ZM1102 272 1065 272 1065 352 1127 352 1127 294 1102 272Z" fill="#FFFFFF"/><path d="M1077 309 1115 309 1115 313 1077 313Z" fill="#FFFFFF"/><path d="M1077 301 1090 301 1090 305 1077 305Z" fill="#FFFFFF"/><path d="M1077 317 1115 317 1115 321 1077 321Z" fill="#FFFFFF"/><path d="M1077 325 1115 325 1115 329 1077 329Z" fill="#FFFFFF"/><path d="M1077 333 1115 333 1115 337 1077 337Z" fill="#FFFFFF"/></g></svg>