<svg width="96" height="96" xmlns="http://www.w3.org/2000/svg" xmlns:xlink="http://www.w3.org/1999/xlink" xml:space="preserve" overflow="hidden"><g transform="translate(-1062 -82)"><path d="M1110 135.4C1103.5 135.4 1098.2 140.7 1098.2 147.2 1098.2 153.7 1103.5 159.1 1110 159.1 1116.5 159.1 1121.8 153.8 1121.8 147.3 1121.8 140.8 1116.5 135.4 1110 135.4" fill="#849295"/><path d="M1110 125.3C1097.9 125.3 1088 135.2 1088 147.3 1088 159.4 1097.9 169.3 1110 169.3 1122.1 169.3 1132 159.4 1132 147.3 1132 135.2 1122.1 125.3 1110 125.3M1110 163.3C1101.2 163.3 1094 156.1 1094 147.3 1094 138.5 1101.2 131.3 1110 131.3 1118.8 131.3 1126 138.5 1126 147.3 1126 156.1 1118.8 163.3 1110 163.3" fill="#849295"/><path d="M1115.4 121.8C1119.4 122.7 1123.1 124.4 1126.3 126.9L1138.6 99.1 1133 90.7 1129.4 90.7 1121.6 107.8 1115.4 121.8Z" fill="#849295"/><path d="M1104.6 121.8 1098.4 107.8 1090.6 90.7 1087 90.7 1081.5 99.1 1093.8 126.9C1096.9 124.5 1100.6 122.7 1104.6 121.8" fill="#849295"/><path d="M1119.5 102.8 1125 90.8 1095 90.8 1100.5 102.8Z" fill="#849295"/></g></svg>