<svg width="96" height="96" xmlns="http://www.w3.org/2000/svg" xmlns:xlink="http://www.w3.org/1999/xlink" xml:space="preserve" overflow="hidden"><g transform="translate(-1066 -484)"><path d="M1154 531C1154 527.7 1151.3 525 1148 525L1129 525C1127.4 525 1126.1 523.7 1126 522.1 1126.1 520.3 1129 516.7 1129 503 1129 499.7 1126.3 497 1123 497 1119.7 497 1117 499.7 1117 503 1117 518.2 1099.3 526.8 1099 527L1099 559C1106.1 559 1106.6 567 1120 567 1124.5 567 1138 567 1138 567 1141.3 567 1144 564.3 1144 561 1144 559.4 1143.4 558 1142.4 557 1142.6 557 1142.8 557 1143 557 1146.3 557 1149 554.3 1149 551 1149 549.4 1148.4 547.9 1147.3 546.8 1150 546.2 1152 543.8 1152 541 1152 539.3 1151.3 537.7 1150.1 536.6 1152.4 535.8 1154 533.6 1154 531Z" fill="#FFFFFF"/><path d="M1089 522 1074 522 1074 564 1089 564C1091.2 564 1093 562.2 1093 560L1093 526C1093 523.8 1091.2 522 1089 522Z" fill="#FFFFFF"/></g></svg>