<svg width="1020" height="495" xmlns="http://www.w3.org/2000/svg" xmlns:xlink="http://www.w3.org/1999/xlink" xml:space="preserve" overflow="hidden"><g transform="translate(-130 -112)"><path d="M363.167 431.7C419.209 410.13 459.077 355.724 459.077 292.173 459.077 209.768 392.051 142.741 309.646 142.741 227.241 142.741 160 209.768 160 292.173 160 374.578 227.241 441.6 309.646 441.6 312.798 441.6 315.928 441.502 319.031 441.311 317.804 432.311 318.211 417.677 319.303 411.854 316.119 412.108 312.898 412.234 309.646 412.234 243.184 412.234 189.584 358.635 189.584 292.173 189.584 225.711 243.184 172.106 309.646 172.106L309.646 172.112C376.108 172.112 429.493 225.711 429.493 292.173 429.493 337.821 404.306 377.409 366.993 397.722 365.176 405.627 362.891 422.584 363.167 431.7Z" fill="#FFFFFF"/><path d="M594.505 442.984C586.727 501.823 536.732 547.01 475.707 547.01 409.245 547.01 355.644 493.406 355.644 426.943 355.644 381.399 380.815 341.897 418.048 321.538 420.656 311.304 422.238 300.234 421.829 287.549 365.9 309.2 326.06 363.513 326.06 426.943 326.06 509.348 393.302 576.375 475.707 576.375 550.818 576.375 613.146 520.695 623.599 448.438 615.937 448.236 599.862 444.961 594.505 442.984ZM623.253 403.217C611.854 332.049 550.039 277.516 475.707 277.516 472.44 277.516 469.197 277.62 465.981 277.828 467.779 284.758 467.753 300.695 465.885 307.274L465.885 307.274C469.124 307.015 472.399 306.882 475.706 306.882 530.747 306.882 576.821 343.645 591.028 394.032 600.732 397.728 611.151 400.985 623.253 403.217Z" fill="#FFFFFF"/><path d="M822.865 315.133C832.114 374.463 876.874 424.919 939 438.336 1019.54 455.737 1099.21 404.376 1116.61 323.828 1134.01 243.279 1082.7 163.406 1002.15 146.004 921.599 128.603 841.887 180.178 824.485 260.727 823.823 263.805 823.257 266.884 822.79 269.963 831.848 270.661 846.067 274.149 851.527 276.444 851.954 273.279 852.507 270.108 853.193 266.925 867.227 201.962 930.934 160.886 995.897 174.92 1060.87 188.954 1101.94 252.666 1087.9 317.629L1087.9 317.629C1073.87 382.593 1010.21 423.455 945.244 409.421 900.623 399.78 867.25 366.806 855.269 326.047 847.929 322.599 831.837 316.787 822.865 315.133Z" fill="#FFFFFF"/><path d="M521.181 276.133C528.959 217.293 578.955 172.112 639.98 172.112 706.442 172.112 760.041 225.711 760.041 292.173 760.041 337.717 734.868 377.224 697.638 397.578 695.032 407.812 693.446 418.882 693.856 431.573 749.784 409.917 789.626 355.603 789.626 292.173 789.626 209.768 722.385 142.741 639.98 142.741 564.869 142.741 502.541 198.421 492.087 270.678 499.75 270.88 515.825 274.155 521.181 276.133ZM492.427 315.9C503.832 387.067 565.647 441.6 639.98 441.6 643.243 441.6 646.49 441.496 649.707 441.288 647.908 434.358 647.931 418.421 649.799 411.843L649.799 411.843C646.564 412.102 643.284 412.234 639.98 412.234 584.934 412.234 538.865 375.472 524.658 325.084 514.949 321.389 504.53 318.131 492.427 315.9Z" fill="#FFFFFF"/><path d="M924.989 442.984C917.211 501.823 867.216 547.01 806.191 547.01 739.728 547.01 686.129 493.406 686.129 426.943 686.129 381.399 711.303 341.897 748.533 321.538 751.139 311.304 752.724 300.234 752.315 287.549 696.387 309.2 656.545 363.513 656.545 426.943 656.545 509.348 723.786 576.375 806.191 576.375 881.302 576.375 943.63 520.695 954.083 448.438 946.421 448.236 930.346 444.961 924.989 442.984ZM953.743 403.217C942.339 332.049 880.523 277.516 806.191 277.516 802.927 277.516 799.681 277.62 796.464 277.828 798.263 284.764 798.24 300.695 796.372 307.274L796.372 307.274C799.606 307.015 802.887 306.882 806.191 306.882 861.237 306.882 907.305 343.645 921.512 394.032 931.222 397.728 941.641 400.985 953.743 403.217Z" fill="#FFFFFF"/></g></svg>