<svg width="96" height="96" xmlns="http://www.w3.org/2000/svg" xmlns:xlink="http://www.w3.org/1999/xlink" xml:space="preserve" overflow="hidden"><g transform="translate(-1055 -372)"><path d="M1097.5 407.9 1084.1 384.5C1072.7 391.1 1065 403.4 1065 417.4L1092 417.4C1092 413.4 1094.2 409.8 1097.5 407.9Z" fill="#FFFFFF"/><path d="M1114 417.4 1141 417.4C1141 403.4 1133.3 391.1 1121.9 384.5L1108.5 407.9C1111.8 409.8 1114 413.4 1114 417.4Z" fill="#FFFFFF"/><path d="M1103 428.4C1101 428.4 1099.1 427.9 1097.5 426.9L1084.1 450.4C1089.7 453.6 1096.1 455.5 1103 455.5 1109.9 455.5 1116.4 453.7 1121.9 450.4L1108.5 427C1106.9 427.9 1105 428.4 1103 428.4Z" fill="#FFFFFF"/><path d="M1110 417.4C1110 421.266 1106.87 424.4 1103 424.4 1099.13 424.4 1096 421.266 1096 417.4 1096 413.534 1099.13 410.4 1103 410.4 1106.87 410.4 1110 413.534 1110 417.4Z" fill="#FFFFFF"/></g></svg>