<svg width="146" height="146" xmlns="http://www.w3.org/2000/svg" xmlns:xlink="http://www.w3.org/1999/xlink" xml:space="preserve" overflow="hidden"><g transform="translate(-336 -114)"><path d="M447.021 238.708 370.979 238.708 370.979 144.417 387.708 144.417 387.708 153.542 430.292 153.542 430.292 144.417 447.021 144.417ZM409 132.25C411.52 132.25 413.562 134.293 413.562 136.812 413.562 139.332 411.52 141.375 409 141.375 406.48 141.375 404.438 139.332 404.438 136.812 404.396 134.334 406.371 132.292 408.85 132.25 408.9 132.249 408.95 132.249 409 132.25ZM450.062 135.292 424.208 135.292 424.208 132.25C424.208 128.89 421.485 126.167 418.125 126.167L399.875 126.167C396.515 126.167 393.792 128.89 393.792 132.25L393.792 135.292 367.938 135.292C364.578 135.292 361.854 138.015 361.854 141.375L361.854 241.75C361.854 245.11 364.578 247.833 367.938 247.833L450.062 247.833C453.422 247.833 456.146 245.11 456.146 241.75L456.146 141.375C456.146 138.015 453.422 135.292 450.062 135.292Z" fill="#A6A6A6"/><path d="M412.042 165.708 437.896 165.708 437.896 171.792 412.042 171.792Z" fill="#A6A6A6"/><path d="M412.042 183.958 437.896 183.958 437.896 190.042 412.042 190.042Z" fill="#A6A6A6"/><path d="M412.042 202.208 437.896 202.208 437.896 208.292 412.042 208.292Z" fill="#A6A6A6"/><path d="M412.042 220.458 437.896 220.458 437.896 226.542 412.042 226.542Z" fill="#A6A6A6"/><path d="M383.906 199.927 394.552 199.927 394.552 210.573 383.906 210.573Z" fill="#A6A6A6"/><path d="M383.906 218.177 394.552 218.177 394.552 228.823 383.906 228.823Z" fill="#A6A6A6"/><path d="M381.179 168.446 384.362 165.263 388.317 169.217 398.354 159.179 401.537 162.363 388.317 175.583 381.179 168.446Z" fill="#A6A6A6"/><path d="M381.179 186.696 384.362 183.513 388.317 187.467 398.354 177.429 401.537 180.613 388.317 193.833 381.179 186.696Z" fill="#A6A6A6"/></g></svg>