<svg width="96" height="96" xmlns="http://www.w3.org/2000/svg" xmlns:xlink="http://www.w3.org/1999/xlink" xml:space="preserve" overflow="hidden"><g transform="translate(-592 -312)"><path d="M665 394 615 394 615 332 626 332 626 338 654 338 654 332 665 332ZM640 324C641.657 324 643 325.343 643 327 643 328.657 641.657 330 640 330 638.343 330 637 328.657 637 327 636.973 325.37 638.272 324.027 639.901 324 639.934 323.999 639.967 323.999 640 324ZM667 326 650 326 650 324C650 321.791 648.209 320 646 320L634 320C631.791 320 630 321.791 630 324L630 326 613 326C610.791 326 609 327.791 609 330L609 396C609 398.209 610.791 400 613 400L667 400C669.209 400 671 398.209 671 396L671 330C671 327.791 669.209 326 667 326Z" fill=" #007D91"/><path d="M642 346 659 346 659 350 642 350Z" fill=" #007D91"/><path d="M642 358 659 358 659 362 642 362Z" fill=" #007D91"/><path d="M642 370 659 370 659 374 642 374Z" fill=" #007D91"/><path d="M642 382 659 382 659 386 642 386Z" fill=" #007D91"/><path d="M623.5 368.5 630.5 368.5 630.5 375.5 623.5 375.5Z" fill=" #007D91"/><path d="M623.5 380.5 630.5 380.5 630.5 387.5 623.5 387.5Z" fill=" #007D91"/><path d="M621.707 347.8 623.8 345.707 626.4 348.307 633 341.707 635.093 343.8 626.4 352.493 621.707 347.8Z" fill=" #007D91"/><path d="M621.707 359.8 623.8 357.707 626.4 360.307 633 353.707 635.093 355.8 626.4 364.493 621.707 359.8Z" fill=" #007D91"/></g></svg>